<?xml version="1.0" encoding="utf-8"?>
<!-- Generator: Adobe Illustrator 16.0.0, SVG Export Plug-In . SVG Version: 6.00 Build 0)  -->
<!DOCTYPE svg PUBLIC "-//W3C//DTD SVG 1.1//EN" "http://www.w3.org/Graphics/SVG/1.1/DTD/svg11.dtd">
<svg version="1.1" id="Layer_1" xmlns="http://www.w3.org/2000/svg" xmlns:xlink="http://www.w3.org/1999/xlink" x="0px" y="0px"
	 width="400px" height="400px" viewBox="-150 -150 400 400" enable-background="new -150 -150 400 400" xml:space="preserve">
<circle fill="#002855" cx="50" cy="50" r="200"/>
<path fill="#DC3545" d="M75.354-75.399c-13.207,0-23.939,10.738-23.939,23.942c-0.006,18.263-8.51,26.767-26.771,26.767v-0.003
	c-18.259,0-26.767-8.503-26.767-26.764c0-13.198-10.736-23.942-23.938-23.942c-13.201,0-23.938,10.744-23.938,23.942
	c0,13.198,10.737,23.942,23.938,23.942c18.263,0,26.768,8.504,26.768,26.76c0,13.198,10.737,23.939,23.938,23.939
	c13.203,0,23.945-10.735,23.945-23.939c0-18.259,8.504-26.766,26.765-26.766c13.201,0,23.935-10.738,23.935-23.939
	C99.288-64.661,88.555-75.399,75.354-75.399z"/>
<path fill="#FFC107" d="M126.061-24.696c-13.204,0-23.938,10.738-23.938,23.942c-0.009,18.263-8.512,26.766-26.77,26.766v-0.002
	c-18.261,0-26.771-8.503-26.771-26.761c0-13.198-10.733-23.942-23.939-23.942c-13.198,0-23.938,10.741-23.938,23.942
	c0,13.201,10.737,23.942,23.938,23.942c18.266,0,26.771,8.505,26.771,26.764c0,13.196,10.732,23.939,23.939,23.939
	c13.201,0,23.943-10.737,23.943-23.939c0-18.259,8.503-26.767,26.764-26.767c13.204,0,23.94-10.738,23.94-23.939
	C149.995-13.955,139.265-24.696,126.061-24.696z"/>
<circle opacity="0.5" fill="#DC3545" enable-background="new    " cx="24.646" cy="-0.754" r="23.942"/>
<path fill="#198754" d="M75.359,26.006c-13.207,0-23.939,10.741-23.939,23.942c-0.006,18.265-8.51,26.768-26.769,26.768V76.71
	c-18.26,0-26.774-8.503-26.774-26.762c0-13.198-10.733-23.942-23.938-23.942c-13.198,0-23.935,10.744-23.935,23.942
	c0,13.196,10.737,23.941,23.935,23.941c18.266,0,26.771,8.507,26.771,26.764c0,13.198,10.734,23.938,23.938,23.938
	c13.203,0,23.945-10.736,23.945-23.938c0-18.257,8.501-26.767,26.762-26.767c13.204,0,23.938-10.742,23.938-23.938
	C99.297,36.747,88.563,26.006,75.359,26.006z"/>
<circle opacity="0.5" fill="#FFC107" enable-background="new    " cx="75.354" cy="49.945" r="23.942"/>
<path fill="#0D6EFD" d="M126.061,76.815c-13.204,0-23.938,10.739-23.938,23.94c-0.009,18.263-8.512,26.767-26.77,26.767v-0.004
	c-18.261,0-26.771-8.503-26.771-26.763c0-13.198-10.733-23.94-23.939-23.94c-13.204,0-23.938,10.742-23.938,23.94
	c0,13.2,10.737,23.94,23.938,23.94c18.266,0,26.771,8.509,26.771,26.764c0,13.197,10.732,23.94,23.939,23.94
	c13.201,0,23.943-10.737,23.943-23.94c0-18.255,8.503-26.764,26.764-26.764c13.204,0,23.94-10.74,23.94-23.94
	C150.001,87.555,139.265,76.815,126.061,76.815z"/>
<circle opacity="0.5" fill="#198754" enable-background="new    " cx="24.657" cy="100.653" r="23.943"/>
</svg>
